<svg xmlns="http://www.w3.org/2000/svg" width="733" height="200" xml:space="preserve"><g><path style="stroke:none;stroke-width:1;stroke-dasharray:none;stroke-linecap:butt;stroke-dashoffset:0;stroke-linejoin:miter;stroke-miterlimit:4;fill:#0f0f0f;fill-rule:nonzero;opacity:1" transform="matrix(.75 0 0 .75 -112.16 -331.09)" d="M680 677.4c-1.4 0-2.8-.1-4.2-.1h-97.7c-1.5 0-3 0-4.5.1-4.5-.3-9-.7-13.5-1.1-2.4-.2-4.8-.5-7.2-.7-8.1-.8-16.2-1.9-24.2-3-12.6-1.7-25.2-3.8-37.7-6.3-9.3-1.8-18.7-3.9-27.9-6.1-17-4-33.8-8.7-50.4-14.1-15.3-4.9-30.4-10.4-45.3-16.3-14.9-6-29.6-12.4-44.1-19.5-32.2-15.6-63.2-33.6-92.6-54-14-9.7-27.6-19.9-40.8-30.6-9.3-7.5-18.4-15.3-27.3-23.3-1.2-1.1-2.3-2.2-3.4-3.4-1.4-1.7-2.2-3.9-2.2-6.1 0-3.9 2.9-7.2 6.8-7.6 2.4-.3 4.9.1 7 1.3 2.7 1.4 5.2 3 7.9 4.4 8.6 4.7 17.2 9.6 25.9 14.1s17.3 8.9 26.1 13.2c14.4 7 28.9 13.5 43.7 19.7 15 6.3 30.2 12.2 45.5 17.7 17 6.1 34.2 11.7 51.5 16.8 16.8 5 33.8 9.5 50.9 13.5 14.8 3.5 29.6 6.7 44.5 9.3 9.5 1.7 19 3.3 28.5 4.8 7.7 1.2 15.5 2.4 23.2 3.4 6 .8 12 1.4 18 2 4.8.5 9.6 1.1 14.4 1.6 2.8.3 5.6.5 8.4.7 4.3.4 8.6.8 12.9 1.1 4.6.3 9.2.6 13.8.8 6.6.4 13.2.7 19.9 1 3.1.1 6.2.1 9.3.2 3.5 0 7 .1 10.6.1 6 .1 12.1.3 18.1.3 9.1-.1 18.3-.3 27.4-.6 4.1-.1 8.2-.3 12.3-.6 7.5-.5 15-1 22.5-1.6 3.6-.3 7.2-.5 10.8-.8 5.1-.5 10.2-1.1 15.3-1.6 2.2-.2 4.4-.4 6.6-.7 4.6-.5 9.2-1.1 13.7-1.7 3.8-.5 7.6-.9 11.4-1.4 3.2-.4 6.4-.9 9.5-1.4 5.6-.9 11.1-1.8 16.6-2.7 5.1-.9 10.3-1.7 15.4-2.7 8.5-1.6 16.9-3.4 25.4-5.2 7.2-1.5 14.3-3.2 21.4-4.8 16.6-3.9 33.1-8.4 49.4-13.3 28.7-8.5 56.9-18.5 84.6-29.8 3.3-1.4 6.7-2.8 10-4.2 2.8-1.2 5.8-1.8 8.8-1.6 4.7.3 8.8 2.1 11.6 6.1 3.2 4.5 3 9.2.4 13.9-1.5 2.4-3.4 4.5-5.8 6.1-9.7 7.2-19.7 13.9-29.9 20.3-12.5 7.8-25.4 15.1-38.6 21.8-18.5 9.5-37.5 18-56.8 25.6-12.1 4.8-24.4 9.2-36.8 13.2-16.4 5.3-33 10.1-49.7 14.3-11.3 2.8-22.6 5.4-34.1 7.7-8.3 1.7-16.6 3-24.9 4.4-5.9 1-11.9 2-17.8 2.8-5.5.8-11 1.4-16.4 2-4.6.6-9.2 1.1-13.8 1.6-4.1.5-8.2.8-12.4 1z"/><path style="stroke:none;stroke-width:1;stroke-dasharray:none;stroke-linecap:butt;stroke-dashoffset:0;stroke-linejoin:miter;stroke-miterlimit:4;fill:#0f0f0f;fill-rule:nonzero;opacity:1" transform="matrix(.75 0 0 .75 -112.16 -331.09)" d="M1036.1 466.5c6.1.3 12.3.4 18.4.9 10.4.8 20.8 2.3 30.8 5.4 2.8.9 5.4 2.1 8.1 3.2 4.8 2 7.1 5.9 7.9 10.9.9 5.3.8 10.6.7 15.9-.3 6.9-1 13.8-2.3 20.6-2 11.5-4.9 22.8-8.6 33.8-5.3 15.9-12.4 31.2-21.2 45.5-5.2 8.4-11.1 16.3-17.8 23.5-3.7 4.1-7.7 7.9-12 11.4-1.4 1.3-3.1 2.3-4.9 2.9-1.1.4-2.3.6-3.5.6-3.7.1-6-2.6-5.5-6.2.3-1.6.7-3.1 1.4-4.6 1.9-5.1 4-10.1 6-15.1 5.4-13.8 10.5-27.8 15-41.9 3.1-9.6 5.6-19.3 7.6-29.1.8-3.9 1.2-7.9 1.6-11.9.3-3.4.2-6.8-.2-10.2-.1-.6-.1-1.2-.2-1.8-.8-5-4.1-9.2-8.7-11.2-4.1-1.8-8.5-3.1-13-3.8-4.7-.8-9.4-1.1-14.1-1.4-6.6-.4-13.3-.4-19.9-.3-5.3.1-10.6.5-15.9.9-3.6.2-7.2.4-10.8.8-6 .5-12 1.1-18 1.7-4.5.4-9 .9-13.5 1.4-2.4.3-4.8.7-7.2.9-1.6.2-3.2.2-4.8.3-.4 0-.8 0-1.2-.1-4.3-.7-6.2-3.5-4.6-7.8.5-1.2 1.2-2.3 2.1-3.3 1.2-1.3 2.6-2.5 4.1-3.5 11.2-7.7 23.5-13.7 36.4-17.8 10.1-3.3 20.5-5.8 31-7.4 7.4-1.2 14.9-2 22.4-2.4 4.6-.3 9.5-.5 14.4-.8z"/></g></svg>